# xmcd
#
# Track frame offsets:
#	150
#	21492
#	34116
#	57881
#	73781
#	90818
#	111309
#	130043
#	145919
#	163718
#	178661
#	207129
#	245795
#	273647
#
# Disc length: 3873 seconds
#
# Revision: 0
# Processed by: cddbd v1.5.2PL0 Copyright (c) Steve Scherf et al.
# Submitted via: EasyCDDAExtractor 10.2.0.1
#
DISCID=cc0f1f0e
DTITLE=Various Artist - Rick Hendrix Co. Vol. 14
DYEAR=2002
DGENRE=Gospel
TTITLE0=Haire Family - Sheltered
TTITLE1=The Shepherds - Oh Yes He Is
TTITLE2=Hoskins Family - Safe Thus Far
TTITLE3=Bradys - Oh THis Is It
TTITLE4=Set Apart - I Came Through The Valley
TTITLE5=Karen Wheaton - Be Healed
TTITLE6=Eventide - Reigning In Mt. Zion
TTITLE7=Heirline - I've Made Up My Mind
TTITLE8=Principles - Mama's Letter To Jesus
TTITLE9=Principles - God Still Dries Our Tears
TTITLE10=Principles - You'll Never Run Out Of The Blood
TTITLE11=Williams - When THere's No Hope
TTITLE12=Common Bond - Just Remember The Hill
TTITLE13=Days  - One Step Farther
EXTD=
EXTT0=
EXTT1=
EXTT2=
EXTT3=
EXTT4=
EXTT5=
EXTT6=
EXTT7=
EXTT8=
EXTT9=
EXTT10=
EXTT11=
EXTT12=
EXTT13=
PLAYORDER=
